<?xml version="1.0" encoding="UTF-8"?>
<svg version="1.1" xmlns="http://www.w3.org/2000/svg" width="452" height="452">
<path d="M0 0 C59.73 0 119.46 0 181 0 C181.1209091 53.27165501 181.1209091 53.27165501 181.14648438 75.64453125 C181.16426518 91.07473756 181.18513548 106.50489462 181.22631836 121.93505859 C181.25630108 133.1742057 181.27559403 144.41331273 181.28226548 155.65249872 C181.28616273 161.59878153 181.29526689 167.54494974 181.31719017 173.49119568 C181.33769566 179.09882832 181.3438056 184.70630018 181.33932304 190.31396675 C181.34014199 192.36165302 181.34602319 194.40934521 181.35761642 196.45699883 C181.4380684 211.41232618 180.32245042 225.53776614 175.4375 239.8125 C175.18846924 240.54549316 174.93943848 241.27848633 174.68286133 242.03369141 C163.54595607 273.22230898 140.10182602 299.23018847 110.43920898 313.86157227 C88.71306472 324.14665604 69.43800062 326 45 326 C45 304.88 45 283.76 45 262 C49.95 261.67 54.9 261.34 60 261 C74.10327264 257.20879768 82.12758208 248.94046162 89.3984375 236.6328125 C98.68544541 219.46591909 98.25763184 201.30157213 99 182 C66.33 182 33.66 182 0 182 C0 121.94 0 61.88 0 0 Z M19 19 C19 66.52 19 114.04 19 163 C51.67 163 84.34 163 118 163 C116.40499973 239.56001298 116.40499973 239.56001298 94.44140625 262.75 C87.03884395 269.57220141 78.3044846 273.44083469 69 277 C67.35 277.66 65.7 278.32 64 279 C64 287.58 64 296.16 64 305 C71.80445215 304.34962899 78.27354243 303.80171962 85.5625 301.5625 C86.82888306 301.1754187 86.82888306 301.1754187 88.12084961 300.78051758 C102.3311534 296.18186323 114.95924156 289.03359803 126 279 C127.01513672 278.195625 127.01513672 278.195625 128.05078125 277.375 C141.14231731 266.88078272 150.65875027 251.15173934 156.3125 235.5625 C156.54300049 234.93174561 156.77350098 234.30099121 157.01098633 233.65112305 C161.6378568 220.01179538 162.43058961 206.83298345 162.34057617 192.58032227 C162.33972796 190.67665622 162.34020883 188.77298921 162.34190369 186.86932373 C162.34275747 181.74838643 162.32523259 176.62766389 162.30418181 171.50677609 C162.2853112 166.13766168 162.28365644 160.76854127 162.28010559 155.3993988 C162.27081544 145.25317671 162.24624303 135.10705265 162.21605712 124.96087354 C162.17611714 111.23550384 162.16003373 97.51010696 162.14255047 83.78469372 C162.11441949 62.18972251 162.0546298 40.5949581 162 19 C114.81 19 67.62 19 19 19 Z " fill="#6D767C" transform="translate(253,81)"/>
<path d="M0 0 C59.73 0 119.46 0 181 0 C181.16121214 52.85966844 181.16121214 52.85966844 181.1953125 75.09375 C181.21900173 90.41607041 181.24677632 105.73830252 181.30175781 121.06054688 C181.34178998 132.22209121 181.36747163 143.38356356 181.37635398 154.5451777 C181.3815411 160.44803298 181.39361982 166.35068245 181.42292023 172.25347137 C181.45034882 177.82503567 181.4583903 183.39631207 181.45243073 188.96793747 C181.45351882 190.99782508 181.46130736 193.02772372 181.4768219 195.05755234 C181.70808477 226.91435123 172.84512995 256.49016172 152 281 C151.28328125 281.86753906 150.5665625 282.73507812 149.828125 283.62890625 C129.15764279 307.73189554 100.13504286 321.65025137 69 326 C61.08 326 53.16 326 45 326 C45 304.88 45 283.76 45 262 C49.62 261.67 54.24 261.34 59 261 C71.05986514 258.52990714 79.45852122 251.93951639 86.2890625 241.77734375 C98.00802904 222.75408984 98.13388914 204.51888238 99 182 C66.33 182 33.66 182 0 182 C0 121.94 0 61.88 0 0 Z M19 19 C19 66.52 19 114.04 19 163 C51.67 163 84.34 163 118 163 C116.40932594 239.35235485 116.40932594 239.35235485 94.18359375 263.0078125 C86.86669427 269.68333797 78.15111174 273.4995031 69 277 C67.35 277.66 65.7 278.32 64 279 C64 287.58 64 296.16 64 305 C71.86686391 304.34442801 78.34740912 303.76860507 85.6875 301.5 C86.53763672 301.23936768 87.38777344 300.97873535 88.26367188 300.71020508 C101.97444693 296.28329902 113.91066054 289.12852015 125 280 C125.77472656 279.38898438 126.54945313 278.77796875 127.34765625 278.1484375 C140.62913324 267.13910032 150.47283177 251.6643775 156.3125 235.5625 C156.54300049 234.93174561 156.77350098 234.30099121 157.01098633 233.65112305 C161.6378568 220.01179538 162.43058961 206.83298345 162.34057617 192.58032227 C162.33972796 190.67665622 162.34020883 188.77298921 162.34190369 186.86932373 C162.34275747 181.74838643 162.32523259 176.62766389 162.30418181 171.50677609 C162.2853112 166.13766168 162.28365644 160.76854127 162.28010559 155.3993988 C162.27081544 145.25317671 162.24624303 135.10705265 162.21605712 124.96087354 C162.17611714 111.23550384 162.16003373 97.51010696 162.14255047 83.78469372 C162.11441949 62.18972251 162.0546298 40.5949581 162 19 C114.81 19 67.62 19 19 19 Z " fill="#6D767C" transform="translate(18,81)"/>
</svg>
