<?xml version="1.0" encoding="UTF-8"?>
<!DOCTYPE svg PUBLIC "-//W3C//DTD SVG 1.1//EN" "http://www.w3.org/Graphics/SVG/1.1/DTD/svg11.dtd">
<svg xmlns="http://www.w3.org/2000/svg" version="1.1" width="80px" height="65px" style="shape-rendering:geometricPrecision; text-rendering:geometricPrecision; image-rendering:optimizeQuality; fill-rule:evenodd; clip-rule:evenodd" xmlns:xlink="http://www.w3.org/1999/xlink">
<g><path style="opacity:1" fill="#7852b2" d="M 12.5,-0.5 C 30.5,-0.5 48.5,-0.5 66.5,-0.5C 68.475,0.646381 69.975,2.31305 71,4.5C 71.2601,10.5506 71.9268,16.5506 73,22.5C 73.9305,25.3616 75.5971,27.695 78,29.5C 78.3826,28.944 78.8826,28.6107 79.5,28.5C 79.5,30.5 79.5,32.5 79.5,34.5C 76.1783,35.6582 74.0117,37.9916 73,41.5C 71.8763,47.1027 71.2096,52.7694 71,58.5C 70.0207,60.9676 68.5207,62.9676 66.5,64.5C 48.5,64.5 30.5,64.5 12.5,64.5C 10.0985,63.2542 8.59854,61.2542 8,58.5C 8.03663,51.6523 7.03663,44.9857 5,38.5C 3.54905,36.5359 1.71572,35.2026 -0.5,34.5C -0.5,32.8333 -0.5,31.1667 -0.5,29.5C 2.42781,28.4086 4.59448,26.4086 6,23.5C 7.07321,17.5506 7.73988,11.5506 8,5.5C 8.97928,3.03244 10.4793,1.03244 12.5,-0.5 Z M 28.5,15.5 C 35.6768,14.9982 42.6768,15.6649 49.5,17.5C 52.8368,22.9834 51.8368,27.4834 46.5,31C 54.1053,34.5226 55.4387,39.6892 50.5,46.5C 43.3413,48.3445 36.008,49.0112 28.5,48.5C 28.5,37.5 28.5,26.5 28.5,15.5 Z"/></g>
<g><path style="opacity:0.729" fill="#b8a3e0" d="M 28.5,15.5 C 34.3188,14.3475 40.3188,14.1808 46.5,15C 47.9423,15.3768 48.9423,16.2101 49.5,17.5C 42.6768,15.6649 35.6768,14.9982 28.5,15.5 Z"/></g>
<g><path style="opacity:0.945" fill="#6950a2" d="M 32.5,18.5 C 36.1817,18.3347 39.8484,18.5014 43.5,19C 48.3292,21.8375 48.6625,25.1708 44.5,29C 40.5138,29.4988 36.5138,29.6655 32.5,29.5C 32.5,25.8333 32.5,22.1667 32.5,18.5 Z"/></g>
<g><path style="opacity:1" fill="#7952b4" d="M 34.5,20.5 C 37.8094,21.6267 41.1427,21.6267 44.5,20.5C 44.33,21.8221 44.6634,22.9887 45.5,24C 43.8934,25.049 43.2267,26.549 43.5,28.5C 40.5,28.5 37.5,28.5 34.5,28.5C 34.5,25.8333 34.5,23.1667 34.5,20.5 Z"/></g>
<g><path style="opacity:0.2" fill="#846db1" d="M 28.5,15.5 C 28.5,26.5 28.5,37.5 28.5,48.5C 36.008,49.0112 43.3413,48.3445 50.5,46.5C 50.0133,47.4734 49.5133,48.4734 49,49.5C 42.0437,49.4289 34.8771,49.4289 27.5,49.5C 27.1719,37.9877 27.5052,26.6544 28.5,15.5 Z"/></g>
<g><path style="opacity:1" fill="#7250ad" d="M 32.5,33.5 C 36.8461,33.3343 41.1794,33.501 45.5,34C 48.2896,36.2103 49.123,39.0437 48,42.5C 43.5596,45.4965 38.7263,46.1632 33.5,44.5C 32.5741,40.9062 32.2408,37.2396 32.5,33.5 Z"/></g>
</svg>
