<?xml version="1.0" encoding="UTF-8"?>
<!DOCTYPE svg PUBLIC "-//W3C//DTD SVG 1.1//EN" "http://www.w3.org/Graphics/SVG/1.1/DTD/svg11.dtd">
<svg xmlns="http://www.w3.org/2000/svg" version="1.1" width="80px" height="80px" style="shape-rendering:geometricPrecision; text-rendering:geometricPrecision; image-rendering:optimizeQuality; fill-rule:evenodd; clip-rule:evenodd" xmlns:xlink="http://www.w3.org/1999/xlink">
<g><path style="opacity:0.22" fill="#6cd7eb" d="M 12.5,3.5 C 32.3264,2.50288 52.3264,2.16955 72.5,2.5C 72.8064,5.38544 72.4731,8.0521 71.5,10.5C 71.5,8.16667 71.5,5.83333 71.5,3.5C 51.8333,3.5 32.1667,3.5 12.5,3.5 Z"/></g>
<g><path style="opacity:1" fill="#0e7daf" d="M 12.5,3.5 C 32.1667,3.5 51.8333,3.5 71.5,3.5C 71.5,5.83333 71.5,8.16667 71.5,10.5C 71.7947,12.7354 71.4614,14.7354 70.5,16.5C 69.5963,16.4654 68.9296,15.9654 68.5,15C 69.0556,13.9889 69.7222,13.1556 70.5,12.5C 70.5,9.83333 70.5,7.16667 70.5,4.5C 50.8333,4.5 31.1667,4.5 11.5,4.5C 10.5,4.5 9.5,4.5 8.5,4.5C 8.5,5.83333 8.5,7.16667 8.5,8.5C 7.83333,8.5 7.5,8.16667 7.5,7.5C 7.5,6.16667 7.5,4.83333 7.5,3.5C 9.16667,3.5 10.8333,3.5 12.5,3.5 Z"/></g>
<g><path style="opacity:1" fill="#0277bd" d="M 11.5,4.5 C 31.1667,4.5 50.8333,4.5 70.5,4.5C 70.5,7.16667 70.5,9.83333 70.5,12.5C 68.7839,12.6287 67.1172,12.962 65.5,13.5C 65.5,11.8333 65.5,10.1667 65.5,8.5C 56.6506,8.17364 47.9839,8.50698 39.5,9.5C 38.1266,9.34332 36.7932,9.50999 35.5,10C 35.5,11 35.5,12 35.5,13C 34.2068,13.49 32.8734,13.6567 31.5,13.5C 31.6882,11.8967 31.1882,10.5634 30,9.5C 29.6667,9.83333 29.3333,10.1667 29,10.5C 23.6526,8.6646 18.1526,7.33127 12.5,6.5C 12.1373,5.81654 11.8039,5.14987 11.5,4.5 Z"/></g>
<g><path style="opacity:0.886" fill="#43abd9" d="M 7.5,7.5 C 7.5,8.16667 7.83333,8.5 8.5,8.5C 8.5,12.5 8.5,16.5 8.5,20.5C 7.73877,16.8183 7.0721,12.985 6.5,9C 6.56993,8.2352 6.90326,7.7352 7.5,7.5 Z"/></g>
<g><path style="opacity:1" fill="#0376bf" d="M 11.5,4.5 C 11.8039,5.14987 12.1373,5.81654 12.5,6.5C 18.1526,7.33127 23.6526,8.6646 29,10.5C 29.3333,10.1667 29.6667,9.83333 30,9.5C 31.1882,10.5634 31.6882,11.8967 31.5,13.5C 32.8734,13.6567 34.2068,13.49 35.5,13C 35.5,12 35.5,11 35.5,10C 36.7932,9.50999 38.1266,9.34332 39.5,9.5C 39.5,11.8333 39.5,14.1667 39.5,16.5C 32.4648,16.6743 25.4648,16.3409 18.5,15.5C 18.5,16.8333 18.5,18.1667 18.5,19.5C 16.8333,19.5 15.1667,19.5 13.5,19.5C 13.5,17.5 13.5,15.5 13.5,13.5C 17.9528,13.7164 21.7861,14.0498 25,14.5C 25.5,14 26,13.5 26.5,13C 20.3593,12.1798 14.3593,10.6798 8.5,8.5C 8.5,7.16667 8.5,5.83333 8.5,4.5C 9.5,4.5 10.5,4.5 11.5,4.5 Z"/></g>
<g><path style="opacity:1" fill="#0598e5" d="M 65.5,13.5 C 64.7659,14.7079 64.4326,16.0413 64.5,17.5C 62.8828,16.962 61.2161,16.6287 59.5,16.5C 59.3962,19.0895 60.0629,21.4229 61.5,23.5C 61.363,25.1073 60.6964,26.4406 59.5,27.5C 58.8326,24.3583 58.166,21.3583 57.5,18.5C 51.69,17.5104 45.69,17.1771 39.5,17.5C 39.5,17.1667 39.5,16.8333 39.5,16.5C 39.5,14.1667 39.5,11.8333 39.5,9.5C 47.9839,8.50698 56.6506,8.17364 65.5,8.5C 65.5,10.1667 65.5,11.8333 65.5,13.5 Z"/></g>
<g><path style="opacity:1" fill="#2771a0" d="M 39.5,17.5 C 39.5,17.8333 39.5,18.1667 39.5,18.5C 33.8333,18.5 28.1667,18.5 22.5,18.5C 22.5,20.8333 22.5,23.1667 22.5,25.5C 21.8333,25.5 21.1667,25.5 20.5,25.5C 20.2317,22.8806 20.565,20.3806 21.5,18C 27.4908,17.5005 33.4908,17.3338 39.5,17.5 Z"/></g>
<g><path style="opacity:1" fill="#0677bd" d="M 8.5,8.5 C 14.3593,10.6798 20.3593,12.1798 26.5,13C 26,13.5 25.5,14 25,14.5C 21.7861,14.0498 17.9528,13.7164 13.5,13.5C 13.5,15.5 13.5,17.5 13.5,19.5C 15.1667,19.5 16.8333,19.5 18.5,19.5C 18.5,18.1667 18.5,16.8333 18.5,15.5C 25.4648,16.3409 32.4648,16.6743 39.5,16.5C 39.5,16.8333 39.5,17.1667 39.5,17.5C 33.4908,17.3338 27.4908,17.5005 21.5,18C 20.565,20.3806 20.2317,22.8806 20.5,25.5C 19.7703,27.045 18.437,27.8784 16.5,28C 19.0578,29.3799 19.0578,30.8799 16.5,32.5C 19.1667,36.1667 19.1667,39.8333 16.5,43.5C 16.9569,44.2975 17.6236,44.6309 18.5,44.5C 17.7494,45.5735 16.7494,45.7401 15.5,45C 14.1667,44.3333 14.1667,43.6667 15.5,43C 14.5509,42.3828 13.7175,42.5494 13,43.5C 12.3828,42.5509 12.5494,41.7175 13.5,41C 12.552,40.5172 11.552,40.3505 10.5,40.5C 10.81,37.2869 10.4767,34.2869 9.5,31.5C 8.65608,27.9009 8.32274,24.2343 8.5,20.5C 8.5,16.5 8.5,12.5 8.5,8.5 Z"/></g>
<g><path style="opacity:1" fill="#157fbd" d="M 70.5,12.5 C 69.7222,13.1556 69.0556,13.9889 68.5,15C 68.9296,15.9654 69.5963,16.4654 70.5,16.5C 69.7749,29.5331 68.7749,42.5331 67.5,55.5C 67.1667,55.5 66.8333,55.5 66.5,55.5C 66.3724,46.4106 67.0391,37.4106 68.5,28.5C 67.1779,28.33 66.0113,28.6634 65,29.5C 64.8019,31.3817 64.3019,33.0484 63.5,34.5C 63.6349,28.819 63.9682,23.1523 64.5,17.5C 64.4326,16.0413 64.7659,14.7079 65.5,13.5C 67.1172,12.962 68.7839,12.6287 70.5,12.5 Z"/></g>
<g><path style="opacity:1" fill="#e9f2f3" d="M 39.5,20.5 C 39.5,21.8333 39.5,23.1667 39.5,24.5C 42.8333,24.5 46.1667,24.5 49.5,24.5C 49.81,27.7131 49.4767,30.7131 48.5,33.5C 48.5,31.1667 48.5,28.8333 48.5,26.5C 40.3501,25.5073 32.0168,25.1739 23.5,25.5C 23.5,23.5 23.5,21.5 23.5,19.5C 29.0262,19.1786 34.3595,19.5119 39.5,20.5 Z"/></g>
<g><path style="opacity:1" fill="#0a75b6" d="M 20.5,25.5 C 21.1667,25.5 21.8333,25.5 22.5,25.5C 27.9753,26.4889 33.642,26.8222 39.5,26.5C 39.5,28.8333 39.5,31.1667 39.5,33.5C 36.8333,33.5 34.1667,33.5 31.5,33.5C 33.0188,32.5902 34.6854,31.7568 36.5,31C 34.3636,28.8879 32.3636,29.0546 30.5,31.5C 29.8333,30.1667 29.1667,28.8333 28.5,27.5C 20.1585,27.6836 17.8251,31.5169 21.5,39C 21.2568,39.9021 20.9234,40.7354 20.5,41.5C 19.8333,42.5 19.1667,43.5 18.5,44.5C 17.6236,44.6309 16.9569,44.2975 16.5,43.5C 19.1667,39.8333 19.1667,36.1667 16.5,32.5C 19.0578,30.8799 19.0578,29.3799 16.5,28C 18.437,27.8784 19.7703,27.045 20.5,25.5 Z"/></g>
<g><path style="opacity:1" fill="#1696dc" d="M 39.5,26.5 C 42.5,26.5 45.5,26.5 48.5,26.5C 48.5,28.8333 48.5,31.1667 48.5,33.5C 45.5,33.5 42.5,33.5 39.5,33.5C 39.5,31.1667 39.5,28.8333 39.5,26.5 Z"/></g>
<g><path style="opacity:1" fill="#f9fcfb" d="M 39.5,20.5 C 44.5,20.5 49.5,20.5 54.5,20.5C 54.9585,31.9278 54.2918,43.2611 52.5,54.5C 50.0607,55.0525 47.7273,55.0525 45.5,54.5C 45.1667,54.1667 44.8333,53.8333 44.5,53.5C 45.9935,52.8589 46.9935,51.8589 47.5,50.5C 47.5,47.5 47.5,44.5 47.5,41.5C 42.6946,40.5128 37.6946,40.1795 32.5,40.5C 32.5,38.5 32.5,36.5 32.5,34.5C 38.0262,34.8214 43.3595,34.4881 48.5,33.5C 49.4767,30.7131 49.81,27.7131 49.5,24.5C 46.1667,24.5 42.8333,24.5 39.5,24.5C 39.5,23.1667 39.5,21.8333 39.5,20.5 Z"/></g>
<g><path style="opacity:1" fill="#0277be" d="M 31.5,33.5 C 31.1667,33.5 30.8333,33.5 30.5,33.5C 28.5,33.5 26.5,33.5 24.5,33.5C 24.5,34.5 24.5,35.5 24.5,36.5C 25.8333,36.5 27.1667,36.5 28.5,36.5C 28.3184,38.5914 28.6518,40.5914 29.5,42.5C 27.3691,43.1687 25.3691,43.8354 23.5,44.5C 22.448,44.6495 21.448,44.4828 20.5,44C 21.7736,43.0228 21.7736,42.1894 20.5,41.5C 20.9234,40.7354 21.2568,39.9021 21.5,39C 17.8251,31.5169 20.1585,27.6836 28.5,27.5C 29.1667,28.8333 29.8333,30.1667 30.5,31.5C 32.3636,29.0546 34.3636,28.8879 36.5,31C 34.6854,31.7568 33.0188,32.5902 31.5,33.5 Z"/></g>
<g><path style="opacity:1" fill="#0a99e4" d="M 64.5,17.5 C 63.9682,23.1523 63.6349,28.819 63.5,34.5C 62.7674,41.4925 62.1008,48.4925 61.5,55.5C 62.5354,60.2697 60.8688,63.4363 56.5,65C 51.1398,66.438 45.8065,67.938 40.5,69.5C 39.5258,67.2573 39.1924,64.924 39.5,62.5C 39.5,61.8333 39.5,61.1667 39.5,60.5C 41.9925,59.2264 44.6592,58.5597 47.5,58.5C 49.9267,58.477 52.26,57.977 54.5,57C 55.7272,54.2641 56.7272,51.4308 57.5,48.5C 56.43,38.5335 56.43,28.5335 57.5,18.5C 58.166,21.3583 58.8326,24.3583 59.5,27.5C 60.6964,26.4406 61.363,25.1073 61.5,23.5C 60.0629,21.4229 59.3962,19.0895 59.5,16.5C 61.2161,16.6287 62.8828,16.962 64.5,17.5 Z"/></g>
<g><path style="opacity:1" fill="#bdeaf8" d="M 30.5,33.5 C 30.8333,33.5 31.1667,33.5 31.5,33.5C 34.1667,33.5 36.8333,33.5 39.5,33.5C 42.5,33.5 45.5,33.5 48.5,33.5C 43.3595,34.4881 38.0262,34.8214 32.5,34.5C 32.5,36.5 32.5,38.5 32.5,40.5C 37.6946,40.1795 42.6946,40.5128 47.5,41.5C 44.8333,41.5 42.1667,41.5 39.5,41.5C 36.5,41.5 33.5,41.5 30.5,41.5C 30.5,38.8333 30.5,36.1667 30.5,33.5 Z"/></g>
<g><path style="opacity:1" fill="#3b9dd0" d="M 39.5,18.5 C 39.5,18.1667 39.5,17.8333 39.5,17.5C 45.69,17.1771 51.69,17.5104 57.5,18.5C 56.43,28.5335 56.43,38.5335 57.5,48.5C 56.7272,51.4308 55.7272,54.2641 54.5,57C 52.26,57.977 49.9267,58.477 47.5,58.5C 49.4181,57.1319 51.5848,56.1319 54,55.5C 55.1656,43.1883 55.999,30.8549 56.5,18.5C 50.8333,18.5 45.1667,18.5 39.5,18.5 Z"/></g>
<g><path style="opacity:1" fill="#127dc1" d="M 9.5,31.5 C 10.4767,34.2869 10.81,37.2869 10.5,40.5C 11.552,40.3505 12.552,40.5172 13.5,41C 12.5494,41.7175 12.3828,42.5509 13,43.5C 13.7175,42.5494 14.5509,42.3828 15.5,43C 14.1667,43.6667 14.1667,44.3333 15.5,45C 16.7494,45.7401 17.7494,45.5735 18.5,44.5C 19.1667,43.5 19.8333,42.5 20.5,41.5C 21.7736,42.1894 21.7736,43.0228 20.5,44C 21.448,44.4828 22.448,44.6495 23.5,44.5C 23.5,44.8333 23.5,45.1667 23.5,45.5C 22.5166,49.2984 22.1832,53.2984 22.5,57.5C 21.2438,57.5386 20.2438,57.0386 19.5,56C 21.986,52.655 22.1527,49.155 20,45.5C 18.6081,48.2784 18.1081,51.2784 18.5,54.5C 14.8149,53.7724 12.9816,51.4391 13,47.5C 12.5005,53.8246 12.3338,60.1579 12.5,66.5C 10.7984,55.0402 9.79839,43.3735 9.5,31.5 Z"/></g>
<g><path style="opacity:1" fill="#1677b6" d="M 30.5,33.5 C 30.5,36.1667 30.5,38.8333 30.5,41.5C 33.5,41.5 36.5,41.5 39.5,41.5C 40.069,45.3293 39.4023,48.6627 37.5,51.5C 35.5,51.1667 33.5,50.8333 31.5,50.5C 31.5,48.8333 31.5,47.1667 31.5,45.5C 29.1667,45.5 26.8333,45.5 24.5,45.5C 24.1667,45.5 23.8333,45.5 23.5,45.5C 23.5,45.1667 23.5,44.8333 23.5,44.5C 25.3691,43.8354 27.3691,43.1687 29.5,42.5C 28.6518,40.5914 28.3184,38.5914 28.5,36.5C 27.1667,36.5 25.8333,36.5 24.5,36.5C 24.5,35.5 24.5,34.5 24.5,33.5C 26.5,33.5 28.5,33.5 30.5,33.5 Z"/></g>
<g><path style="opacity:1" fill="#1b98dd" d="M 39.5,41.5 C 42.1667,41.5 44.8333,41.5 47.5,41.5C 47.5,44.5 47.5,47.5 47.5,50.5C 44.6239,50.9272 41.7906,51.5938 39,52.5C 38.2352,52.4301 37.7352,52.0967 37.5,51.5C 39.4023,48.6627 40.069,45.3293 39.5,41.5 Z"/></g>
<g><path style="opacity:1" fill="#0278bf" d="M 66.5,55.5 C 66.7373,56.791 66.404,57.791 65.5,58.5C 65.3059,56.0882 63.9726,55.0882 61.5,55.5C 62.1008,48.4925 62.7674,41.4925 63.5,34.5C 64.3019,33.0484 64.8019,31.3817 65,29.5C 66.0113,28.6634 67.1779,28.33 68.5,28.5C 67.0391,37.4106 66.3724,46.4106 66.5,55.5 Z"/></g>
<g><path style="opacity:1" fill="#0376c1" d="M 22.5,57.5 C 24.5648,57.5172 26.5648,57.8505 28.5,58.5C 28.9528,59.4584 29.6195,60.2917 30.5,61C 29.9056,61.4643 29.2389,61.631 28.5,61.5C 23.9155,61.5543 20.0822,59.8876 17,56.5C 15.3726,58.999 14.206,61.6657 13.5,64.5C 14.6119,65.2652 15.2786,66.2652 15.5,67.5C 14.5,67.5 13.5,67.5 12.5,67.5C 12.5,67.1667 12.5,66.8333 12.5,66.5C 12.3338,60.1579 12.5005,53.8246 13,47.5C 12.9816,51.4391 14.8149,53.7724 18.5,54.5C 18.1081,51.2784 18.6081,48.2784 20,45.5C 22.1527,49.155 21.986,52.655 19.5,56C 20.2438,57.0386 21.2438,57.5386 22.5,57.5 Z"/></g>
<g><path style="opacity:1" fill="#e9f1f3" d="M 24.5,45.5 C 26.8333,45.5 29.1667,45.5 31.5,45.5C 31.5,47.1667 31.5,48.8333 31.5,50.5C 32.6808,52.0672 34.3474,52.9005 36.5,53C 37.376,54.586 38.376,56.086 39.5,57.5C 36.911,58.205 34.2443,58.205 31.5,57.5C 29.1732,57.3354 27.0065,56.6687 25,55.5C 24.5017,52.1832 24.335,48.8499 24.5,45.5 Z"/></g>
<g><path style="opacity:1" fill="#ddf6fc" d="M 39.5,18.5 C 45.1667,18.5 50.8333,18.5 56.5,18.5C 55.999,30.8549 55.1656,43.1883 54,55.5C 51.5848,56.1319 49.4181,57.1319 47.5,58.5C 44.6592,58.5597 41.9925,59.2264 39.5,60.5C 36.8877,59.6295 34.221,58.9628 31.5,58.5C 31.5,58.1667 31.5,57.8333 31.5,57.5C 34.2443,58.205 36.911,58.205 39.5,57.5C 38.376,56.086 37.376,54.586 36.5,53C 34.3474,52.9005 32.6808,52.0672 31.5,50.5C 33.5,50.8333 35.5,51.1667 37.5,51.5C 37.7352,52.0967 38.2352,52.4301 39,52.5C 41.7906,51.5938 44.6239,50.9272 47.5,50.5C 46.9935,51.8589 45.9935,52.8589 44.5,53.5C 44.8333,53.8333 45.1667,54.1667 45.5,54.5C 47.7273,55.0525 50.0607,55.0525 52.5,54.5C 54.2918,43.2611 54.9585,31.9278 54.5,20.5C 49.5,20.5 44.5,20.5 39.5,20.5C 34.3595,19.5119 29.0262,19.1786 23.5,19.5C 23.5,21.5 23.5,23.5 23.5,25.5C 32.0168,25.1739 40.3501,25.5073 48.5,26.5C 45.5,26.5 42.5,26.5 39.5,26.5C 33.642,26.8222 27.9753,26.4889 22.5,25.5C 22.5,23.1667 22.5,20.8333 22.5,18.5C 28.1667,18.5 33.8333,18.5 39.5,18.5 Z"/></g>
<g><path style="opacity:1" fill="#0376be" d="M 28.5,61.5 C 26.0784,62.9923 25.4117,64.9923 26.5,67.5C 27.935,65.5989 29.6017,65.2655 31.5,66.5C 26.306,70.0798 20.9727,70.4131 15.5,67.5C 15.2786,66.2652 14.6119,65.2652 13.5,64.5C 14.206,61.6657 15.3726,58.999 17,56.5C 20.0822,59.8876 23.9155,61.5543 28.5,61.5 Z"/></g>
<g><path style="opacity:1" fill="#347fac" d="M 23.5,45.5 C 23.8333,45.5 24.1667,45.5 24.5,45.5C 24.335,48.8499 24.5017,52.1832 25,55.5C 27.0065,56.6687 29.1732,57.3354 31.5,57.5C 31.5,57.8333 31.5,58.1667 31.5,58.5C 30.5,58.5 29.5,58.5 28.5,58.5C 26.5648,57.8505 24.5648,57.5172 22.5,57.5C 22.1832,53.2984 22.5166,49.2984 23.5,45.5 Z"/></g>
<g><path style="opacity:1" fill="#2a9bc8" d="M 66.5,55.5 C 66.8333,55.5 67.1667,55.5 67.5,55.5C 67.6655,59.5138 67.4988,63.5138 67,67.5C 65.8904,69.0368 64.3904,69.7035 62.5,69.5C 62.5,68.5 62.5,67.5 62.5,66.5C 63.5,66.5 64.5,66.5 65.5,66.5C 65.5,63.8333 65.5,61.1667 65.5,58.5C 66.404,57.791 66.7373,56.791 66.5,55.5 Z"/></g>
<g><path style="opacity:1" fill="#107fbe" d="M 28.5,58.5 C 29.5,58.5 30.5,58.5 31.5,58.5C 34.221,58.9628 36.8877,59.6295 39.5,60.5C 39.5,61.1667 39.5,61.8333 39.5,62.5C 32.9602,62.2973 32.2936,63.6306 37.5,66.5C 35.4675,68.5134 33.1342,70.0134 30.5,71C 32.8888,71.7388 34.8888,72.9054 36.5,74.5C 34.5648,73.8505 32.5648,73.5172 30.5,73.5C 24.7669,72.3122 19.1002,70.8122 13.5,69C 12.944,68.6174 12.6107,68.1174 12.5,67.5C 13.5,67.5 14.5,67.5 15.5,67.5C 20.9727,70.4131 26.306,70.0798 31.5,66.5C 29.6017,65.2655 27.935,65.5989 26.5,67.5C 25.4117,64.9923 26.0784,62.9923 28.5,61.5C 29.2389,61.631 29.9056,61.4643 30.5,61C 29.6195,60.2917 28.9528,59.4584 28.5,58.5 Z"/></g>
<g><path style="opacity:1" fill="#0478c0" d="M 61.5,55.5 C 63.9726,55.0882 65.3059,56.0882 65.5,58.5C 65.5,61.1667 65.5,63.8333 65.5,66.5C 64.5,66.5 63.5,66.5 62.5,66.5C 62.5,67.5 62.5,68.5 62.5,69.5C 62.5,70.1667 62.1667,70.5 61.5,70.5C 61.2648,69.9033 60.7648,69.5699 60,69.5C 56.8725,70.2037 53.7058,70.7037 50.5,71C 49.244,71.4169 48.5774,72.2502 48.5,73.5C 44.5191,74.0209 40.5191,74.3542 36.5,74.5C 34.8888,72.9054 32.8888,71.7388 30.5,71C 33.1342,70.0134 35.4675,68.5134 37.5,66.5C 32.2936,63.6306 32.9602,62.2973 39.5,62.5C 39.1924,64.924 39.5258,67.2573 40.5,69.5C 45.8065,67.938 51.1398,66.438 56.5,65C 60.8688,63.4363 62.5354,60.2697 61.5,55.5 Z"/></g>
<g><path style="opacity:1" fill="#46aed4" d="M 61.5,70.5 C 57.2067,71.6566 52.8734,72.6566 48.5,73.5C 48.5774,72.2502 49.244,71.4169 50.5,71C 53.7058,70.7037 56.8725,70.2037 60,69.5C 60.7648,69.5699 61.2648,69.9033 61.5,70.5 Z"/></g>
<g><path style="opacity:1" fill="#59beda" d="M 30.5,73.5 C 32.5648,73.5172 34.5648,73.8505 36.5,74.5C 40.5191,74.3542 44.5191,74.0209 48.5,73.5C 42.5,77.5 36.5,77.5 30.5,73.5 Z"/></g>
</svg>
