<?xml version="1.0" encoding="UTF-8"?>
<svg version="1.1" xmlns="http://www.w3.org/2000/svg" width="80" height="80">
<path d="M0 0 C1.24885986 0.01244751 1.24885986 0.01244751 2.52294922 0.02514648 C14.2225195 0.34663869 22.4982272 5.09757843 30.5390625 13.50390625 C39.11440623 23.70309167 40.69153799 34.48690801 39.79003906 47.4140625 C39.28436635 51.91086017 37.81260348 55.55414383 35.5625 59.4375 C35.13839844 60.21351562 34.71429688 60.98953125 34.27734375 61.7890625 C28.98707353 70.60126749 20.53526096 76.72567655 10.83984375 80.0234375 C-1.19232668 82.21110485 -13.43996492 80.94328239 -23.6875 74.1875 C-32.02769372 67.9356177 -38.19938872 59.81255515 -40.4375 49.4375 C-41.22484047 36.29794917 -40.54650411 26.33397427 -32.4375 15.4375 C-31.633125 14.2309375 -31.633125 14.2309375 -30.8125 13 C-22.35818618 3.87824036 -12.27053579 -0.15865995 0 0 Z M-16.4375 24.4375 C-16.4375 34.9975 -16.4375 45.5575 -16.4375 56.4375 C-14.4575 56.4375 -12.4775 56.4375 -10.4375 56.4375 C-10.7675 45.8775 -11.0975 35.3175 -11.4375 24.4375 C-13.0875 24.4375 -14.7375 24.4375 -16.4375 24.4375 Z M-3.4375 24.4375 C-3.4375 26.0875 -3.4375 27.7375 -3.4375 29.4375 C2.8325 29.4375 9.1025 29.4375 15.5625 29.4375 C15.5625 27.7875 15.5625 26.1375 15.5625 24.4375 C9.2925 24.4375 3.0225 24.4375 -3.4375 24.4375 Z M-3.4375 37.4375 C-3.4375 39.4175 -3.4375 41.3975 -3.4375 43.4375 C2.8325 43.4375 9.1025 43.4375 15.5625 43.4375 C15.5625 41.4575 15.5625 39.4775 15.5625 37.4375 C9.2925 37.4375 3.0225 37.4375 -3.4375 37.4375 Z M3.25 50.875 C1.99574219 50.97683594 0.74148437 51.07867187 -0.55078125 51.18359375 C-1.97970703 51.30927734 -1.97970703 51.30927734 -3.4375 51.4375 C-3.4375 53.0875 -3.4375 54.7375 -3.4375 56.4375 C2.8325 56.4375 9.1025 56.4375 15.5625 56.4375 C15.5625 54.7875 15.5625 53.1375 15.5625 51.4375 C11.31698144 50.34162045 7.6032161 50.50884164 3.25 50.875 Z " fill="#8F023B" transform="translate(40.4375,-0.4375)"/>
<path d="M0 0 C0.99 0.33 1.98 0.66 3 1 C2.34 1 1.68 1 1 1 C1 11.56 1 22.12 1 33 C2.98 33 4.96 33 7 33 C7 22.44 7 11.88 7 1 C8.32 1.66 9.64 2.32 11 3 C11.66 2.01 12.32 1.02 13 0 C15.15478516 -0.34057617 15.15478516 -0.34057617 17.7890625 -0.29296875 C18.73007812 -0.28330078 19.67109375 -0.27363281 20.640625 -0.26367188 C22.11789063 -0.2259668 22.11789063 -0.2259668 23.625 -0.1875 C24.61757813 -0.17396484 25.61015625 -0.16042969 26.6328125 -0.14648438 C29.08908072 -0.11105743 31.54427285 -0.06166196 34 0 C34 2.64 34 5.28 34 8 C28.72 8 23.44 8 18 8 C18 7.34 18 6.68 18 6 C22.95 6 27.9 6 33 6 C33 4.35 33 2.7 33 1 C26.73 1 20.46 1 14 1 C14 2.65 14 4.3 14 6 C14.99 6 15.98 6 17 6 C17 6.66 17 7.32 17 8 C16.01 8.33 15.02 8.66 14 9 C14.33 10.32 14.66 11.64 15 13 C10.25 16 10.25 16 8 16 C8 21.94 8 27.88 8 34 C5.36 34 2.72 34 0 34 C0 22.78 0 11.56 0 0 Z " fill="#901E4C" transform="translate(23,23)"/>
<path d="M0 0 C0.97904297 0.01353516 1.95808594 0.02707031 2.96679688 0.04101562 C5.37426625 0.07624688 7.78059564 0.12550735 10.1875 0.1875 C10.28515625 6.33984375 10.28515625 6.33984375 10.1875 8.1875 C9.1875 9.1875 9.1875 9.1875 5.37109375 9.28515625 C3.78903318 9.27848089 2.20698841 9.26651875 0.625 9.25 C-0.18130859 9.24548828 -0.98761719 9.24097656 -1.81835938 9.23632812 C-3.81643756 9.22450518 -5.81447783 9.20656914 -7.8125 9.1875 C-8.1425 10.5075 -8.4725 11.8275 -8.8125 13.1875 C-4.1925 13.1875 0.4275 13.1875 5.1875 13.1875 C4.8575 13.8475 4.5275 14.5075 4.1875 15.1875 C-0.4325 15.1875 -5.0525 15.1875 -9.8125 15.1875 C-10.1425 17.1675 -10.4725 19.1475 -10.8125 21.1875 C-8.5025 21.1875 -6.1925 21.1875 -3.8125 21.1875 C-6.38463134 22.80699011 -7.48919159 23.23158751 -10.5625 22.8125 C-11.305 22.60625 -12.0475 22.4 -12.8125 22.1875 C-12.4825 19.8775 -12.1525 17.5675 -11.8125 15.1875 C-12.8025 15.6825 -12.8025 15.6825 -13.8125 16.1875 C-13.8125 17.5075 -13.8125 18.8275 -13.8125 20.1875 C-14.4725 20.1875 -15.1325 20.1875 -15.8125 20.1875 C-15.94737595 17.41504986 -16.04650807 14.64912912 -16.125 11.875 C-16.16689453 11.08931641 -16.20878906 10.30363281 -16.25195312 9.49414062 C-16.3729987 3.80499857 -16.3729987 3.80499857 -13.96875 1.15625 C-9.29374413 -0.27865279 -4.85764557 -0.12723182 0 0 Z M-9.8125 1.1875 C-9.8125 3.1675 -9.8125 5.1475 -9.8125 7.1875 C-3.5425 7.1875 2.7275 7.1875 9.1875 7.1875 C9.1875 5.2075 9.1875 3.2275 9.1875 1.1875 C2.9175 1.1875 -3.3525 1.1875 -9.8125 1.1875 Z " fill="#871140" transform="translate(46.8125,35.8125)"/>
<path d="M0 0 C5.22000584 0.52200058 9.58713788 2.20904902 14 5 C14.33 5.66 14.66 6.32 15 7 C13.68 7 12.36 7 11 7 C11 6.34 11 5.68 11 5 C10.01 5.33 9.02 5.66 8 6 C7.01 5.34 6.02 4.68 5 4 C4.67 4.66 4.34 5.32 4 6 C3.67 5.01 3.34 4.02 3 3 C1.68 3 0.36 3 -1 3 C-0.67 2.01 -0.34 1.02 0 0 Z " fill="#80113B" transform="translate(49,1)"/>
<path d="M0 0 C0 0.33 0 0.66 0 1 C-0.59167969 1.19335938 -1.18335937 1.38671875 -1.79296875 1.5859375 C-6.72226577 3.20251865 -6.72226577 3.20251865 -11.5625 5.0625 C-14.97459336 6.3748436 -18.44351469 7.15608823 -22 8 C-19.87528271 5.68333005 -17.88372366 4.25041422 -15.0625 2.875 C-14.39347656 2.54242188 -13.72445313 2.20984375 -13.03515625 1.8671875 C-8.62569004 -0.01170213 -4.78743969 -0.09206615 0 0 Z " fill="#81113C" transform="translate(38,0)"/>
<path d="M0 0 C2.58697066 0.98913584 4.77833533 2.34583458 7.125 3.8125 C8.45348523 4.48877599 9.7860414 5.15720458 11.125 5.8125 C5.13988629 5.46947965 0.37382694 4.98942157 -4.875 1.8125 C-1.875 -0.1875 -1.875 -0.1875 0 0 Z " fill="#881441" transform="translate(25.875,74.1875)"/>
<path d="M0 0 C1.03274898 2.68514734 1.07566569 3.7921588 0.07421875 6.54296875 C-0.38339844 7.41566406 -0.84101562 8.28835937 -1.3125 9.1875 C-1.76238281 10.06792969 -2.21226563 10.94835938 -2.67578125 11.85546875 C-4 14 -4 14 -6 15 C-6 13.68 -6 12.36 -6 11 C-5.34 11 -4.68 11 -4 11 C-4.20625 10.236875 -4.4125 9.47375 -4.625 8.6875 C-5 6 -5 6 -3 3 C-2.01 3 -1.02 3 0 3 C0 2.01 0 1.02 0 0 Z " fill="#86163E" transform="translate(78,49)"/>
<path d="M0 0 C0.66 0.33 1.32 0.66 2 1 C2 2.32 2 3.64 2 5 C2.99 5 3.98 5 5 5 C5 5.66 5 6.32 5 7 C2.03 7 -0.94 7 -4 7 C-4 5.02 -4 3.04 -4 1 C-3.01 1.33 -2.02 1.66 -1 2 C-0.67 1.34 -0.34 0.68 0 0 Z " fill="#8A0C41" transform="translate(35,24)"/>
<path d="M0 0 C0.33 0.99 0.66 1.98 1 3 C0.01 4.485 0.01 4.485 -1 6 C4.61 6 10.22 6 16 6 C16 6.33 16 6.66 16 7 C10.06 7 4.12 7 -2 7 C-2.66 5.35 -3.32 3.7 -4 2 C-2.68 2 -1.36 2 0 2 C0 1.34 0 0.68 0 0 Z " fill="#800635" transform="translate(40,29)"/>
<path d="M0 0 C0.33 0.99 0.66 1.98 1 3 C1.66 3 2.32 3 3 3 C3.33 3.99 3.66 4.98 4 6 C3.01 6.33 2.02 6.66 1 7 C-0.21869929 9.50447516 -0.21869929 9.50447516 -1 12 C-1.33 12 -1.66 12 -2 12 C-2.17835515 7.45194365 -1.99785435 4.1205746 0 0 Z " fill="#840D3B" transform="translate(3,22)"/>
<path d="M0 0 C0 0.99 0 1.98 0 3 C-2.5 5.1875 -2.5 5.1875 -5 7 C-5.33 5.68 -5.66 4.36 -6 3 C-5.195625 2.690625 -4.39125 2.38125 -3.5625 2.0625 C-1.10919595 1.23664655 -1.10919595 1.23664655 0 0 Z " fill="#7E163E" transform="translate(70,65)"/>
</svg>
