<svg xmlns="http://www.w3.org/2000/svg" width="60" height="60" viewBox="0 0 60 60" fill="none"><circle cx="30" cy="30" r="30" fill="url(#paint0_linear_151_1573)"></circle><g clip-path="url(#clip0_151_1573)"><path d="M21.8988 21.2706H19.5242L25.998 39.5705L29.6222 29.2137L26.8123 21.2706H24.3069V19.5268H35.4017V21.2706H32.8035L39.2773 39.5705L41.6043 32.9204C44.6569 24.4004 39.1023 21.7464 39.1023 19.8449C39.1023 17.9435 40.6438 16.4022 42.5451 16.4022C42.648 16.4022 42.7479 16.4077 42.8458 16.4169C39.6241 13.3756 35.28 11.5105 30.4998 11.5105C24.2539 11.5105 18.7521 14.6943 15.5269 19.5268H21.8986V21.2706H21.8988Z" fill="white"></path><path d="M12.5105 29.5C12.5105 36.3873 16.3816 42.3696 22.066 45.3926L13.9477 22.4439C13.0229 24.6105 12.5105 26.9954 12.5105 29.5Z" fill="white"></path><path d="M46.1561 20.6354C46.4134 22.1505 46.3355 23.8534 45.9407 25.5629H46.0122L45.7402 26.3402C45.579 26.9014 45.3761 27.4755 45.1455 28.0396L38.9556 45.381C44.6281 42.3544 48.4893 36.3785 48.4893 29.4999C48.4893 26.2767 47.6408 23.2519 46.1561 20.6354Z" fill="white"></path><path d="M24.9518 46.6161C26.6994 47.1822 28.5636 47.4893 30.4999 47.4893C32.3468 47.4893 34.1285 47.2106 35.8058 46.6935L30.5436 31.8187L24.9518 46.6161Z" fill="white"></path><path d="M45.7027 14.2972C41.6419 10.2364 36.2428 8 30.4999 8C24.757 8 19.358 10.2364 15.2972 14.2972C11.2364 18.358 9 23.757 9 29.5C9 35.2429 11.2364 40.6419 15.2972 44.7027C19.358 48.7635 24.7571 50.9999 30.5 50.9999C36.2429 50.9999 41.6419 48.7635 45.7028 44.7027C49.7636 40.6419 52 35.2428 52 29.5C51.9999 23.757 49.7635 18.358 45.7027 14.2972ZM30.4999 49.4832C19.4811 49.4832 10.5167 40.5188 10.5167 29.5C10.5167 18.4812 19.4811 9.51666 30.4999 9.51666C41.5187 9.51666 50.4831 18.4812 50.4831 29.5C50.4831 40.5188 41.5188 49.4832 30.4999 49.4832Z" fill="white"></path></g><defs><linearGradient id="paint0_linear_151_1573" x1="30" y1="0" x2="30" y2="60" gradientUnits="userSpaceOnUse"><stop stop-color="#8B58F9"></stop><stop offset="1" stop-color="#184BD1"></stop></linearGradient><clipPath id="clip0_151_1573"><rect width="43" height="43" fill="white" transform="translate(9 8)"></rect></clipPath></defs></svg>